<svg xmlns="http://www.w3.org/2000/svg" viewBox="0 0 1200 1000" width="1200" height="1000" role="img" aria-label="Community health initiative"><defs>
<linearGradient id="sky" x1="0" y1="0" x2="0.35" y2="1"><stop offset="0" stop-color="#0C1F33"/><stop offset="0.55" stop-color="#1B4A6E"/><stop offset="1" stop-color="#3A7794"/></linearGradient>
<radialGradient id="sun" cx="0.5" cy="0.5" r="0.5"><stop offset="0" stop-color="#F3D3A0" stop-opacity="0.95"/><stop offset="0.45" stop-color="#F3D3A0" stop-opacity="0.35"/><stop offset="1" stop-color="#F3D3A0" stop-opacity="0"/></radialGradient>
<radialGradient id="vig" cx="0.5" cy="0.45" r="0.78"><stop offset="0.45" stop-color="#000" stop-opacity="0"/><stop offset="1" stop-color="#000" stop-opacity="0.5"/></radialGradient>
<linearGradient id="waterfade" x1="0" y1="0" x2="0" y2="1"><stop offset="0" stop-color="#CADFE9" stop-opacity="0"/><stop offset="1" stop-color="#CADFE9" stop-opacity="0.16"/></linearGradient>
<filter id="blur" x="-30%" y="-30%" width="160%" height="160%"><feGaussianBlur stdDeviation="50"/></filter>
</defs>
<rect width="1200" height="1000" fill="url(#sky)"/>
<circle cx="483.27" cy="503.62" r="1.72" fill="#FDF6EA" opacity="0.34"/><circle cx="1065.8" cy="318.75" r="1.42" fill="#FDF6EA" opacity="0.49"/><circle cx="575.3" cy="495.96" r="1.18" fill="#FDF6EA" opacity="0.44"/><circle cx="608.33" cy="153.32" r="0.77" fill="#FDF6EA" opacity="0.27"/><circle cx="301.13" cy="599.6" r="1.52" fill="#FDF6EA" opacity="0.54"/><circle cx="317.39" cy="81.51" r="1.62" fill="#FDF6EA" opacity="0.38"/><circle cx="683.87" cy="180.27" r="0.86" fill="#FDF6EA" opacity="0.15"/><circle cx="77.37" cy="175.39" r="0.74" fill="#FDF6EA" opacity="0.23"/><circle cx="387.56" cy="497.52" r="1.29" fill="#FDF6EA" opacity="0.52"/><circle cx="994.93" cy="467.25" r="1.96" fill="#FDF6EA" opacity="0.13"/><circle cx="473.53" cy="420.96" r="2.28" fill="#FDF6EA" opacity="0.28"/><circle cx="786.26" cy="447.38" r="0.88" fill="#FDF6EA" opacity="0.25"/><circle cx="39.79" cy="559.09" r="0.88" fill="#FDF6EA" opacity="0.14"/><circle cx="656.87" cy="478.44" r="1.33" fill="#FDF6EA" opacity="0.19"/><circle cx="556.4" cy="520.74" r="1.8" fill="#FDF6EA" opacity="0.21"/><circle cx="881.63" cy="332.86" r="1.76" fill="#FDF6EA" opacity="0.13"/><circle cx="997.17" cy="147.73" r="1.78" fill="#FDF6EA" opacity="0.13"/><circle cx="539.73" cy="300.67" r="1.38" fill="#FDF6EA" opacity="0.39"/><circle cx="12.53" cy="187.49" r="2.06" fill="#FDF6EA" opacity="0.18"/><circle cx="534.57" cy="460.28" r="1.35" fill="#FDF6EA" opacity="0.46"/><circle cx="51.82" cy="163.79" r="2.26" fill="#FDF6EA" opacity="0.13"/><circle cx="615.99" cy="84.15" r="0.95" fill="#FDF6EA" opacity="0.49"/><circle cx="665.07" cy="437.5" r="1.48" fill="#FDF6EA" opacity="0.23"/><circle cx="329.81" cy="315.58" r="1.8" fill="#FDF6EA" opacity="0.36"/><circle cx="337.15" cy="40.7" r="2.35" fill="#FDF6EA" opacity="0.2"/><circle cx="188.7" cy="351.41" r="2" fill="#FDF6EA" opacity="0.28"/><circle cx="941.14" cy="416.63" r="1.34" fill="#FDF6EA" opacity="0.36"/><circle cx="418.5" cy="268.5" r="2.07" fill="#FDF6EA" opacity="0.25"/><circle cx="499.94" cy="20.09" r="1.04" fill="#FDF6EA" opacity="0.18"/><circle cx="839.14" cy="582.64" r="1.99" fill="#FDF6EA" opacity="0.42"/><circle cx="876.02" cy="62.95" r="0.95" fill="#FDF6EA" opacity="0.57"/><circle cx="742.32" cy="50.19" r="1.43" fill="#FDF6EA" opacity="0.53"/><circle cx="163.22" cy="200.21" r="0.8" fill="#FDF6EA" opacity="0.35"/><circle cx="882.96" cy="124.64" r="1.9" fill="#FDF6EA" opacity="0.21"/><circle cx="1161.18" cy="518.79" r="0.72" fill="#FDF6EA" opacity="0.14"/><circle cx="1052.71" cy="509.22" r="0.85" fill="#FDF6EA" opacity="0.33"/><circle cx="89.45" cy="212.02" r="1.22" fill="#FDF6EA" opacity="0.52"/><circle cx="903.36" cy="327.08" r="1.18" fill="#FDF6EA" opacity="0.37"/><circle cx="105.26" cy="452.05" r="0.67" fill="#FDF6EA" opacity="0.49"/><circle cx="857" cy="80.27" r="1.88" fill="#FDF6EA" opacity="0.44"/><circle cx="799.94" cy="611.3" r="2.25" fill="#FDF6EA" opacity="0.51"/><circle cx="115.6" cy="413.9" r="2.21" fill="#FDF6EA" opacity="0.5"/><circle cx="1073.59" cy="242.67" r="1.97" fill="#FDF6EA" opacity="0.48"/><circle cx="198.41" cy="104.58" r="1.03" fill="#FDF6EA" opacity="0.39"/><circle cx="167.49" cy="273.04" r="1.27" fill="#FDF6EA" opacity="0.18"/><circle cx="430.11" cy="123.22" r="0.79" fill="#FDF6EA" opacity="0.26"/>
<circle cx="757.61" cy="292.33" r="363.71" fill="url(#sun)" filter="url(#blur)"/>
<circle cx="757.61" cy="292.33" r="63.65" fill="#F3D3A0" opacity="0.55"/>
<path d="M -30 1030 L -30 327.73 Q 0 327.73 85.71 314.82 Q 171.43 301.9 257.14 317.72 Q 342.86 333.54 428.57 332.18 Q 514.29 330.83 600 326.22 Q 685.71 321.6 771.43 330.02 Q 857.14 338.45 942.86 365.38 Q 1028.57 392.31 1114.29 384.73 L 1230 1030 Z" fill="#143A57" opacity="0.85"/>
         <path d="M -30 1030 L -30 430.4 Q 0 430.4 85.71 425.11 Q 171.43 419.82 257.14 428.17 Q 342.86 436.52 428.57 445.41 Q 514.29 454.29 600 467.09 Q 685.71 479.88 771.43 461.13 Q 857.14 442.39 942.86 471.39 Q 1028.57 500.39 1114.29 500.47 L 1230 1030 Z" fill="#0A1D30" opacity="0.95"/>
<rect width="1200" height="1000" fill="url(#waterfade)"/>
<path d="M -120 478.45 C 264 471.36, 744 485.54, 1320 475.61" stroke="#CADFE9" stroke-width="3.38" stroke-linecap="round" fill="none" opacity="0.39"/><path d="M -120 491.82 C 264 494.41, 744 489.23, 1320 492.86" stroke="#CADFE9" stroke-width="2.17" stroke-linecap="round" fill="none" opacity="0.42"/><path d="M -120 566.25 C 264 504.07, 744 628.43, 1320 541.38" stroke="#CADFE9" stroke-width="1.31" stroke-linecap="round" fill="none" opacity="0.43"/><path d="M -120 618.91 C 264 683.87, 744 553.95, 1320 644.9" stroke="#CADFE9" stroke-width="2.94" stroke-linecap="round" fill="none" opacity="0.35"/><path d="M -120 681.29 C 264 610.16, 744 752.42, 1320 652.84" stroke="#CADFE9" stroke-width="1.09" stroke-linecap="round" fill="none" opacity="0.16"/><path d="M -120 690.75 C 264 685.03, 744 696.46, 1320 688.46" stroke="#CADFE9" stroke-width="2.1" stroke-linecap="round" fill="none" opacity="0.35"/><path d="M -120 744.3 C 264 788.7, 744 699.9, 1320 762.06" stroke="#CADFE9" stroke-width="2.81" stroke-linecap="round" fill="none" opacity="0.4"/><path d="M -120 845.9 C 264 830.78, 744 861.01, 1320 839.85" stroke="#CADFE9" stroke-width="2.42" stroke-linecap="round" fill="none" opacity="0.41"/><path d="M -120 873.11 C 264 840.3, 744 905.92, 1320 859.99" stroke="#CADFE9" stroke-width="3.18" stroke-linecap="round" fill="none" opacity="0.25"/>
<g transform="translate(192 340) scale(1.9230769230769231)" opacity="0.14" fill="none" stroke="#CADFE9" stroke-width="9" stroke-linecap="round"><path d="M0 -74 a 20 20 0 1 0 0 40 a 20 20 0 1 0 0 -40 M0 -34 L0 66 M-30 -34 L30 -34 M0 66 C 20 66 44 50 56 14 M0 66 C -20 66 -44 50 -56 14 M56 14 l 14 -18 M56 14 l -20 -4 M-56 14 l -14 -18 M-56 14 l 20 -4"/></g>
<rect width="1200" height="1000" fill="url(#vig)"/>
</svg>