<svg xmlns="http://www.w3.org/2000/svg" viewBox="0 0 1200 1500" width="1200" height="1500" role="img" aria-label="Gallery photo"><defs>
<linearGradient id="sky" x1="0" y1="0" x2="0.35" y2="1"><stop offset="0" stop-color="#0A1A2E"/><stop offset="0.55" stop-color="#123A5C"/><stop offset="1" stop-color="#2C5F7E"/></linearGradient>
<radialGradient id="sun" cx="0.5" cy="0.5" r="0.5"><stop offset="0" stop-color="#EFC98F" stop-opacity="0.95"/><stop offset="0.45" stop-color="#EFC98F" stop-opacity="0.35"/><stop offset="1" stop-color="#EFC98F" stop-opacity="0"/></radialGradient>
<radialGradient id="vig" cx="0.5" cy="0.45" r="0.78"><stop offset="0.45" stop-color="#000" stop-opacity="0"/><stop offset="1" stop-color="#000" stop-opacity="0.5"/></radialGradient>
<linearGradient id="waterfade" x1="0" y1="0" x2="0" y2="1"><stop offset="0" stop-color="#BFDCE8" stop-opacity="0"/><stop offset="1" stop-color="#BFDCE8" stop-opacity="0.16"/></linearGradient>
<filter id="blur" x="-30%" y="-30%" width="160%" height="160%"><feGaussianBlur stdDeviation="60"/></filter>
</defs>
<rect width="1200" height="1500" fill="url(#sky)"/>
<circle cx="33.69" cy="32.26" r="1.73" fill="#FBF3E4" opacity="0.25"/><circle cx="263.27" cy="225.2" r="1.74" fill="#FBF3E4" opacity="0.37"/><circle cx="1045.26" cy="375.89" r="1.85" fill="#FBF3E4" opacity="0.26"/><circle cx="313.95" cy="437.14" r="1.22" fill="#FBF3E4" opacity="0.57"/><circle cx="271.58" cy="645.72" r="0.63" fill="#FBF3E4" opacity="0.32"/><circle cx="645.15" cy="323.57" r="1.21" fill="#FBF3E4" opacity="0.12"/><circle cx="719.28" cy="276.94" r="1.64" fill="#FBF3E4" opacity="0.44"/><circle cx="1106.02" cy="432.75" r="1.73" fill="#FBF3E4" opacity="0.32"/><circle cx="781" cy="862.76" r="0.9" fill="#FBF3E4" opacity="0.41"/><circle cx="353.25" cy="775.97" r="1.27" fill="#FBF3E4" opacity="0.16"/><circle cx="419.15" cy="724.59" r="1.81" fill="#FBF3E4" opacity="0.57"/><circle cx="679.85" cy="108.56" r="1.21" fill="#FBF3E4" opacity="0.41"/><circle cx="0.12" cy="901.06" r="1.73" fill="#FBF3E4" opacity="0.25"/><circle cx="93.61" cy="584.32" r="2.43" fill="#FBF3E4" opacity="0.38"/><circle cx="577.41" cy="566.98" r="1.41" fill="#FBF3E4" opacity="0.39"/><circle cx="1127.45" cy="831.45" r="0.78" fill="#FBF3E4" opacity="0.44"/><circle cx="113.75" cy="606.04" r="1.4" fill="#FBF3E4" opacity="0.53"/><circle cx="576.66" cy="633.31" r="2.07" fill="#FBF3E4" opacity="0.43"/><circle cx="163.51" cy="600.46" r="2.28" fill="#FBF3E4" opacity="0.12"/><circle cx="232.88" cy="915.21" r="1.8" fill="#FBF3E4" opacity="0.57"/><circle cx="982.77" cy="617.77" r="2.14" fill="#FBF3E4" opacity="0.4"/><circle cx="325.66" cy="764.88" r="2.29" fill="#FBF3E4" opacity="0.13"/><circle cx="295.6" cy="67.94" r="1.45" fill="#FBF3E4" opacity="0.41"/><circle cx="453.47" cy="227.11" r="1.21" fill="#FBF3E4" opacity="0.47"/><circle cx="532.75" cy="558.75" r="1.12" fill="#FBF3E4" opacity="0.45"/><circle cx="486.26" cy="528.3" r="0.69" fill="#FBF3E4" opacity="0.17"/><circle cx="991.54" cy="898.82" r="1.29" fill="#FBF3E4" opacity="0.16"/><circle cx="976.3" cy="357.74" r="2.49" fill="#FBF3E4" opacity="0.14"/><circle cx="1134.73" cy="44.54" r="2.39" fill="#FBF3E4" opacity="0.47"/><circle cx="300.14" cy="489.88" r="2.21" fill="#FBF3E4" opacity="0.43"/><circle cx="314.54" cy="278.72" r="1.04" fill="#FBF3E4" opacity="0.52"/><circle cx="875.68" cy="831.1" r="1.09" fill="#FBF3E4" opacity="0.45"/><circle cx="147.35" cy="402.59" r="1.94" fill="#FBF3E4" opacity="0.44"/><circle cx="1151.6" cy="721.04" r="2.38" fill="#FBF3E4" opacity="0.51"/><circle cx="163.54" cy="9.09" r="2.17" fill="#FBF3E4" opacity="0.33"/><circle cx="983.22" cy="74.29" r="1.56" fill="#FBF3E4" opacity="0.42"/><circle cx="1044.85" cy="819.42" r="1.35" fill="#FBF3E4" opacity="0.23"/><circle cx="271.8" cy="87.14" r="0.81" fill="#FBF3E4" opacity="0.48"/><circle cx="190.54" cy="333.82" r="1.11" fill="#FBF3E4" opacity="0.16"/><circle cx="1115.23" cy="28.8" r="1.25" fill="#FBF3E4" opacity="0.19"/><circle cx="443.25" cy="327.82" r="1.36" fill="#FBF3E4" opacity="0.42"/><circle cx="117.16" cy="30.51" r="2.36" fill="#FBF3E4" opacity="0.16"/><circle cx="616.44" cy="752.48" r="2.27" fill="#FBF3E4" opacity="0.17"/><circle cx="713.46" cy="454.62" r="1.05" fill="#FBF3E4" opacity="0.46"/><circle cx="375.08" cy="302.96" r="1.32" fill="#FBF3E4" opacity="0.47"/><circle cx="1178.99" cy="392.36" r="1.9" fill="#FBF3E4" opacity="0.23"/><circle cx="690.83" cy="656.57" r="2.27" fill="#FBF3E4" opacity="0.19"/><circle cx="438.75" cy="784.07" r="2.36" fill="#FBF3E4" opacity="0.34"/><circle cx="137.43" cy="746.41" r="2.33" fill="#FBF3E4" opacity="0.53"/><circle cx="758.92" cy="365.63" r="0.77" fill="#FBF3E4" opacity="0.27"/><circle cx="560.71" cy="819.18" r="2.32" fill="#FBF3E4" opacity="0.19"/><circle cx="473.53" cy="458.7" r="1.27" fill="#FBF3E4" opacity="0.18"/><circle cx="658.37" cy="811.33" r="1.07" fill="#FBF3E4" opacity="0.35"/><circle cx="512.11" cy="84.45" r="2.34" fill="#FBF3E4" opacity="0.53"/><circle cx="781.09" cy="230.97" r="0.88" fill="#FBF3E4" opacity="0.19"/><circle cx="481.71" cy="895.07" r="1.17" fill="#FBF3E4" opacity="0.13"/><circle cx="930.98" cy="627.23" r="2.34" fill="#FBF3E4" opacity="0.34"/><circle cx="1174.7" cy="182.04" r="0.98" fill="#FBF3E4" opacity="0.39"/><circle cx="256.46" cy="160.55" r="1.59" fill="#FBF3E4" opacity="0.35"/><circle cx="198.83" cy="825.75" r="2.35" fill="#FBF3E4" opacity="0.49"/><circle cx="624.65" cy="169.25" r="2.47" fill="#FBF3E4" opacity="0.22"/><circle cx="219.95" cy="454.88" r="1.23" fill="#FBF3E4" opacity="0.5"/><circle cx="644.44" cy="555.39" r="0.82" fill="#FBF3E4" opacity="0.43"/><circle cx="106.51" cy="781.42" r="2.41" fill="#FBF3E4" opacity="0.41"/><circle cx="740.56" cy="446.13" r="0.72" fill="#FBF3E4" opacity="0.45"/><circle cx="419.28" cy="919.72" r="1.64" fill="#FBF3E4" opacity="0.32"/><circle cx="723.2" cy="476.81" r="0.67" fill="#FBF3E4" opacity="0.51"/><circle cx="30.13" cy="312.13" r="1.17" fill="#FBF3E4" opacity="0.17"/><circle cx="908.32" cy="866.82" r="1.13" fill="#FBF3E4" opacity="0.42"/>
<circle cx="969.5" cy="351.14" r="539.68" fill="url(#sun)" filter="url(#blur)"/>
<circle cx="969.5" cy="351.14" r="94.44" fill="#EFC98F" opacity="0.55"/>
<path d="M -30 1530 L -30 990 L 44.9 881.9 L 180 983.41 L 304.64 757.44 L 390 969.98 L 479.56 866.33 L 600 982.99 L 718 812.17 L 810 984.99 L 905.04 847.03 L 1020 964.18 L 1128.05 765.12 L 1230 981.51 L 1230 1050 L 1230 1530 Z" fill="#1B4560" opacity="0.75"/>
         <path d="M -30 1530 L -30 1170 L 95.02 828.98 L 285 1132.29 L 484.6 895.3 L 600 1132.98 L 800.03 991.28 L 915 1130.6 L 1038.96 1000.22 L 1230 1158.88 L 1230 1260 L 1230 1530 Z" fill="#123049" opacity="0.9"/>
         <path d="M -30 1530 L -30 1246.36 Q 0 1246.36 85.71 1224.35 Q 171.43 1202.34 257.14 1229.26 Q 342.86 1256.19 428.57 1276.92 Q 514.29 1297.65 600 1337.8 Q 685.71 1377.95 771.43 1341.25 Q 857.14 1304.55 942.86 1371.72 Q 1028.57 1438.9 1114.29 1446.27 L 1230 1530 Z" fill="#0A1E33"/>
<rect width="1200" height="1500" fill="url(#waterfade)"/>
<path d="M -120 986.85 C 264 933.48, 744 1040.22, 1320 965.5" stroke="#BFDCE8" stroke-width="1.84" stroke-linecap="round" fill="none" opacity="0.19"/><path d="M -120 1125.56 C 264 1233.3, 744 1017.81, 1320 1168.66" stroke="#BFDCE8" stroke-width="2.93" stroke-linecap="round" fill="none" opacity="0.5"/><path d="M -120 1142.8 C 264 1122.65, 744 1162.94, 1320 1134.74" stroke="#BFDCE8" stroke-width="3.41" stroke-linecap="round" fill="none" opacity="0.54"/><path d="M -120 1212.32 C 264 1262.17, 744 1162.46, 1320 1232.26" stroke="#BFDCE8" stroke-width="1.01" stroke-linecap="round" fill="none" opacity="0.21"/><path d="M -120 1281.67 C 264 1400.85, 744 1162.48, 1320 1329.34" stroke="#BFDCE8" stroke-width="2.91" stroke-linecap="round" fill="none" opacity="0.47"/><path d="M -120 1393.92 C 264 1336.29, 744 1451.56, 1320 1370.87" stroke="#BFDCE8" stroke-width="1.01" stroke-linecap="round" fill="none" opacity="0.45"/>
<g transform="translate(192 510) scale(2.3076923076923075)" opacity="0.14" fill="none" stroke="#BFDCE8" stroke-width="9" stroke-linecap="round"><path d="M0 -74 a 20 20 0 1 0 0 40 a 20 20 0 1 0 0 -40 M0 -34 L0 66 M-30 -34 L30 -34 M0 66 C 20 66 44 50 56 14 M0 66 C -20 66 -44 50 -56 14 M56 14 l 14 -18 M56 14 l -20 -4 M-56 14 l -14 -18 M-56 14 l 20 -4"/></g>
<rect width="1200" height="1500" fill="url(#vig)"/>
</svg>