<svg xmlns="http://www.w3.org/2000/svg" viewBox="0 0 1200 1200" width="1200" height="1200" role="img" aria-label="Gallery photo"><defs>
<linearGradient id="sky" x1="0" y1="0" x2="0.35" y2="1"><stop offset="0" stop-color="#0B1730"/><stop offset="0.55" stop-color="#1E3763"/><stop offset="1" stop-color="#33547F"/></linearGradient>
<radialGradient id="sun" cx="0.5" cy="0.5" r="0.5"><stop offset="0" stop-color="#F0CD9A" stop-opacity="0.95"/><stop offset="0.45" stop-color="#F0CD9A" stop-opacity="0.35"/><stop offset="1" stop-color="#F0CD9A" stop-opacity="0"/></radialGradient>
<radialGradient id="vig" cx="0.5" cy="0.45" r="0.78"><stop offset="0.45" stop-color="#000" stop-opacity="0"/><stop offset="1" stop-color="#000" stop-opacity="0.5"/></radialGradient>
<linearGradient id="waterfade" x1="0" y1="0" x2="0" y2="1"><stop offset="0" stop-color="#C6DCEC" stop-opacity="0"/><stop offset="1" stop-color="#C6DCEC" stop-opacity="0.16"/></linearGradient>
<filter id="blur" x="-30%" y="-30%" width="160%" height="160%"><feGaussianBlur stdDeviation="60"/></filter>
</defs>
<rect width="1200" height="1200" fill="url(#sky)"/>
<circle cx="1149.28" cy="427.43" r="2.03" fill="#FBF4EA" opacity="0.56"/><circle cx="568.78" cy="515.15" r="1.88" fill="#FBF4EA" opacity="0.26"/><circle cx="1109.46" cy="649.55" r="2.24" fill="#FBF4EA" opacity="0.15"/><circle cx="1149.16" cy="265.09" r="1.1" fill="#FBF4EA" opacity="0.39"/><circle cx="429.92" cy="618.45" r="1.53" fill="#FBF4EA" opacity="0.25"/><circle cx="356.39" cy="641.39" r="1.81" fill="#FBF4EA" opacity="0.35"/><circle cx="577.66" cy="415.34" r="1.52" fill="#FBF4EA" opacity="0.42"/><circle cx="605.93" cy="431.98" r="2.16" fill="#FBF4EA" opacity="0.13"/><circle cx="656.82" cy="104.22" r="1.49" fill="#FBF4EA" opacity="0.38"/><circle cx="1119.21" cy="158.45" r="1.37" fill="#FBF4EA" opacity="0.43"/><circle cx="699.34" cy="16.98" r="1.85" fill="#FBF4EA" opacity="0.19"/><circle cx="1194.14" cy="516.05" r="1.25" fill="#FBF4EA" opacity="0.19"/><circle cx="898.1" cy="160.97" r="1.89" fill="#FBF4EA" opacity="0.23"/><circle cx="349.54" cy="34.19" r="1.07" fill="#FBF4EA" opacity="0.28"/><circle cx="68.98" cy="709.48" r="1.82" fill="#FBF4EA" opacity="0.45"/><circle cx="297.01" cy="123.5" r="0.95" fill="#FBF4EA" opacity="0.26"/><circle cx="944.45" cy="562.62" r="1.7" fill="#FBF4EA" opacity="0.42"/><circle cx="1128.36" cy="168.52" r="1.68" fill="#FBF4EA" opacity="0.17"/><circle cx="1007.08" cy="292.92" r="2.02" fill="#FBF4EA" opacity="0.22"/><circle cx="400.66" cy="170.56" r="2.25" fill="#FBF4EA" opacity="0.29"/><circle cx="848.33" cy="108.87" r="1.8" fill="#FBF4EA" opacity="0.25"/><circle cx="286.8" cy="10.79" r="1.1" fill="#FBF4EA" opacity="0.37"/><circle cx="411.78" cy="119.63" r="2" fill="#FBF4EA" opacity="0.41"/><circle cx="774.01" cy="252.52" r="2.47" fill="#FBF4EA" opacity="0.17"/><circle cx="1045.54" cy="266.49" r="0.94" fill="#FBF4EA" opacity="0.31"/><circle cx="640.43" cy="133.19" r="2.46" fill="#FBF4EA" opacity="0.44"/><circle cx="310.12" cy="267.92" r="1.26" fill="#FBF4EA" opacity="0.13"/><circle cx="842.58" cy="459.36" r="2.06" fill="#FBF4EA" opacity="0.23"/><circle cx="751.99" cy="513.68" r="0.89" fill="#FBF4EA" opacity="0.21"/><circle cx="69.38" cy="109.55" r="0.82" fill="#FBF4EA" opacity="0.52"/><circle cx="629.44" cy="712.23" r="2.14" fill="#FBF4EA" opacity="0.31"/><circle cx="473.92" cy="643.37" r="1.96" fill="#FBF4EA" opacity="0.4"/><circle cx="898.9" cy="118.12" r="2.38" fill="#FBF4EA" opacity="0.16"/><circle cx="476.88" cy="231.15" r="0.78" fill="#FBF4EA" opacity="0.49"/><circle cx="469.79" cy="682.6" r="1.87" fill="#FBF4EA" opacity="0.33"/><circle cx="11.85" cy="137.14" r="2.11" fill="#FBF4EA" opacity="0.41"/><circle cx="1152.85" cy="635.27" r="1.19" fill="#FBF4EA" opacity="0.38"/><circle cx="985.55" cy="277.7" r="0.71" fill="#FBF4EA" opacity="0.47"/><circle cx="984.14" cy="151.49" r="2.19" fill="#FBF4EA" opacity="0.3"/><circle cx="1169.21" cy="264.7" r="2.29" fill="#FBF4EA" opacity="0.25"/><circle cx="380.94" cy="677.63" r="1.62" fill="#FBF4EA" opacity="0.53"/><circle cx="5.39" cy="611.02" r="1.32" fill="#FBF4EA" opacity="0.27"/><circle cx="177.13" cy="449.15" r="1.75" fill="#FBF4EA" opacity="0.28"/><circle cx="146.04" cy="628.26" r="0.83" fill="#FBF4EA" opacity="0.42"/><circle cx="810.71" cy="182.15" r="1.37" fill="#FBF4EA" opacity="0.5"/><circle cx="985.61" cy="208.05" r="1.68" fill="#FBF4EA" opacity="0.44"/><circle cx="993.26" cy="21.29" r="1.17" fill="#FBF4EA" opacity="0.13"/><circle cx="279.03" cy="742.67" r="1.95" fill="#FBF4EA" opacity="0.3"/><circle cx="785.5" cy="146.63" r="0.78" fill="#FBF4EA" opacity="0.48"/><circle cx="667.49" cy="345.54" r="1.76" fill="#FBF4EA" opacity="0.35"/><circle cx="364.12" cy="217.33" r="1.01" fill="#FBF4EA" opacity="0.16"/><circle cx="668.24" cy="126" r="1.12" fill="#FBF4EA" opacity="0.29"/><circle cx="876" cy="641.64" r="2.37" fill="#FBF4EA" opacity="0.17"/><circle cx="589.51" cy="547.17" r="1.1" fill="#FBF4EA" opacity="0.42"/><circle cx="941.25" cy="535.75" r="2.17" fill="#FBF4EA" opacity="0.2"/>
<circle cx="924.36" cy="334.29" r="589.04" fill="url(#sun)" filter="url(#blur)"/>
<circle cx="924.36" cy="334.29" r="103.08" fill="#F0CD9A" opacity="0.55"/>
<path d="M -30 1230 L -30 792 L 125.38 600.51 L 390 790.69 L 653.8 601.15 L 810 765.41 L 991.29 628.49 L 1230 773.67 L 1230 840 L 1230 1230 Z" fill="#28406F" opacity="0.75"/>
         <path d="M -30 1230 L -30 936 L 171.91 736.1 L 285 912.7 L 474.6 742.84 L 600 908.12 L 744.48 727.71 L 915 898.53 L 1122.82 688.09 L 1230 900.85 L 1230 1008 L 1230 1230 Z" fill="#182A50" opacity="0.9"/>
         <path d="M -30 1230 L -30 996.06 Q 0 996.06 85.71 985.8 Q 171.43 975.54 257.14 995.49 Q 342.86 1015.44 428.57 1065.08 Q 514.29 1114.72 600 1089.7 Q 685.71 1064.67 771.43 1042.75 Q 857.14 1020.83 942.86 1086.47 Q 1028.57 1152.11 1114.29 1157.58 L 1230 1230 Z" fill="#0A1430"/>
<rect width="1200" height="1200" fill="url(#waterfade)"/>
<path d="M -120 787.01 C 264 840.22, 744 733.8, 1320 808.3" stroke="#C6DCEC" stroke-width="2.32" stroke-linecap="round" fill="none" opacity="0.57"/><path d="M -120 846.31 C 264 898.81, 744 793.81, 1320 867.31" stroke="#C6DCEC" stroke-width="3.39" stroke-linecap="round" fill="none" opacity="0.52"/><path d="M -120 943.89 C 264 1003.48, 744 884.3, 1320 967.73" stroke="#C6DCEC" stroke-width="1.65" stroke-linecap="round" fill="none" opacity="0.28"/><path d="M -120 999.3 C 264 919.77, 744 1078.83, 1320 967.49" stroke="#C6DCEC" stroke-width="1.37" stroke-linecap="round" fill="none" opacity="0.38"/><path d="M -120 1020.68 C 264 1025.55, 744 1015.8, 1320 1022.63" stroke="#C6DCEC" stroke-width="1.24" stroke-linecap="round" fill="none" opacity="0.28"/><path d="M -120 1097.07 C 264 1190.83, 744 1003.3, 1320 1134.57" stroke="#C6DCEC" stroke-width="1.64" stroke-linecap="round" fill="none" opacity="0.42"/>
<g transform="translate(192 408) scale(2.3076923076923075)" opacity="0.14" fill="none" stroke="#C6DCEC" stroke-width="9" stroke-linecap="round"><path d="M0 -74 a 20 20 0 1 0 0 40 a 20 20 0 1 0 0 -40 M0 -34 L0 66 M-30 -34 L30 -34 M0 66 C 20 66 44 50 56 14 M0 66 C -20 66 -44 50 -56 14 M56 14 l 14 -18 M56 14 l -20 -4 M-56 14 l -14 -18 M-56 14 l 20 -4"/></g>
<rect width="1200" height="1200" fill="url(#vig)"/>
</svg>